<svg xmlns="http://www.w3.org/2000/svg" width="10.03" height="7" viewBox="0 0 10.03 7">
  <defs>
    <style>
      .cls-1 {
        fill: #fff;
        fill-rule: evenodd;
      }
    </style>
  </defs>
  <path id="arrow-thin-right.svg" class="cls-1" d="M1744.85,53.841l-3.28,3.017a0.573,0.573,0,0,1-.38.142,0.549,0.549,0,0,1-.37-0.141,0.455,0.455,0,0,1,0-.682l2.39-2.194h-7.68a0.485,0.485,0,1,1,0-.966h7.68l-2.39-2.194a0.455,0.455,0,0,1,0-.682,0.568,0.568,0,0,1,.75,0l3.28,3.017A0.463,0.463,0,0,1,1744.85,53.841Z" transform="translate(-1735 -50)"/>
</svg>
