<svg xmlns="http://www.w3.org/2000/svg" width="12.03" height="16" viewBox="0 0 12.03 16">
  <defs>
    <style>
      .cls-1 {
        fill: #f5ebe5;
        fill-rule: evenodd;
      }
    </style>
  </defs>
  <path id="arrow-thin-down.svg" class="cls-1" d="M1091.76,792.505l-5.18,5.249a0.808,0.808,0,0,1-.58.246,0.83,0.83,0,0,1-.59-0.246l-5.17-5.249a0.84,0.84,0,0,1,0-1.191,0.817,0.817,0,0,1,1.17,0l3.76,3.816V782.842a0.825,0.825,0,1,1,1.65,0v12.287l3.77-3.816a0.817,0.817,0,0,1,1.17,0A0.859,0.859,0,0,1,1091.76,792.505Z" transform="translate(-1080 -782)"/>
</svg>
