<svg id="marker.svg" xmlns="http://www.w3.org/2000/svg" xmlns:xlink="http://www.w3.org/1999/xlink" width="331" height="251" viewBox="0 0 331 251">
  <defs>
    <style>
      .cls-1, .cls-2, .cls-3, .cls-4 {
        fill: #e6bca3;
      }

      .cls-1 {
        opacity: 0.24;
      }

      .cls-3 {
        opacity: 0.6;
      }

      .cls-4, .cls-5 {
        fill-rule: evenodd;
      }

      .cls-4 {
        filter: url(#filter);
      }

      .cls-5 {
        fill: #f5ebe5;
      }
    </style>
    <filter id="filter" x="625" y="3806" width="299" height="172" filterUnits="userSpaceOnUse">
      <feOffset result="offset" dx="7.071" dy="7.071" in="SourceAlpha"/>
      <feGaussianBlur result="blur" stdDeviation="5.477"/>
      <feFlood result="flood" flood-color="#e6bca3" flood-opacity="0.7"/>
      <feComposite result="composite" operator="in" in2="blur"/>
      <feBlend result="blend" in="SourceGraphic"/>
    </filter>
  </defs>
  <g id="circle">
    <circle id="Elipsa_2" data-name="Elipsa 2" class="cls-1" cx="79.5" cy="171.5" r="79.5"/>
    <circle id="Elipsa_2-2" data-name="Elipsa 2" class="cls-2" cx="79.5" cy="171.5" r="10.25"/>
    <circle id="Elipsa_2-3" data-name="Elipsa 2" class="cls-3" cx="79" cy="171" r="30"/>
    <circle id="Elipsa_2-4" data-name="Elipsa 2" class="cls-1" cx="79.5" cy="171.5" r="56.5"/>
  </g>
  <g id="box.svg">
    <path id="box-bg.svg" class="cls-4" d="M647,3828H887v106H647V3828Zm32,106-7,7.01-7-7.01h14Z" transform="translate(-593 -3806)"/>
    <path id="Pekařská_33_Brno" data-name="Pekařská 33, Brno" class="cls-5" d="M687.636,3888.32a7.346,7.346,0,0,0-3.768-.77l-6.864.03c-0.4,0-.6.07-0.6,0.22,0,0.12.216,0.19,0.648,0.19a1.368,1.368,0,0,1,1.224.31,7.778,7.778,0,0,1,.12,1.85v12.38a1.6,1.6,0,0,1-.228,1.1,2.972,2.972,0,0,1-1.4.22q-0.384,0-.384.18a0.155,0.155,0,0,0,.12.14,4.86,4.86,0,0,0,.912.04h6.336c0.256,0,.384-0.07.384-0.2,0-.16-0.216-0.22-0.648-0.21a2.273,2.273,0,0,1-1.332-.27,3.632,3.632,0,0,1-.18-1.56v-6.16a14.252,14.252,0,0,0,1.824.17,6.233,6.233,0,0,0,4.08-1.26,4.094,4.094,0,0,0,1.536-3.33,3.445,3.445,0,0,0-1.776-3.07h0Zm-3.12,6.5a2.437,2.437,0,0,1-1.2.56,8,8,0,0,1-1.344.07v-6.31a1.124,1.124,0,0,1,1.344-1.18q2.232,0,2.232,3.57a4.269,4.269,0,0,1-1.032,3.29h0Zm13.824,6.27a0.688,0.688,0,0,0-.312.46,3.688,3.688,0,0,1-1.188,1.48,2.66,2.66,0,0,1-1.62.58,2.328,2.328,0,0,1-1.7-.69,5.489,5.489,0,0,1-1.176-3.97c0-.4.024-0.89,0.072-1.46,0.608-.03,1.112-0.05,1.512-0.05q3.888-.03,4.44-0.09a7.819,7.819,0,0,0-.144-1.04,3.424,3.424,0,0,0-1.56-2.13,4.838,4.838,0,0,0-2.616-.67,5.005,5.005,0,0,0-3.768,1.57,5.427,5.427,0,0,0-1.512,3.92,5.3,5.3,0,0,0,1.56,3.94,5.452,5.452,0,0,0,3.984,1.53,4.142,4.142,0,0,0,3.5-1.84,2.666,2.666,0,0,0,.624-1.4c0-.09-0.032-0.14-0.1-0.14h0Zm-3.768-4.06H692.46c0.144-2.17.7-3.26,1.68-3.26a1.021,1.021,0,0,1,1.008.72,7.355,7.355,0,0,1,.264,2.54h-0.84Zm17.466,6.8a1.322,1.322,0,0,1-.64-0.11,1.794,1.794,0,0,1-.434-0.51l-0.2-.28-0.394-.59c-0.192-.29-0.311-0.46-0.359-0.53-0.322-.48-0.556-0.83-0.7-1.07l-2.754-4.18c0.768-.87,1.4-1.54,1.9-2.02a1.5,1.5,0,0,1,1.057-.43,1.439,1.439,0,0,0,.985-0.2c0-.09-0.144-0.14-0.432-0.14h-3.7c-0.192,0-.288.06-0.288,0.17,0,0.13.184,0.19,0.552,0.19,0.544,0.02.864,0.03,0.96,0.05a0.142,0.142,0,0,1,.144.14,9.874,9.874,0,0,1-1.144,1.41c-0.477.55-.835,0.97-1.073,1.24a13.433,13.433,0,0,1-1.239,1.29v-7.13l-0.1-2.57a6.1,6.1,0,0,0-.12-1.29,1.376,1.376,0,0,0-.576.21,8.659,8.659,0,0,1-3.408.63,4.159,4.159,0,0,0-.7.05q-0.1.015-.1,0.18c0,0.12.154,0.17,0.462,0.17a1.671,1.671,0,0,1,1.107.2,1.917,1.917,0,0,1,.207,1.15v12.63a3.17,3.17,0,0,1-.108,1.19,1.831,1.831,0,0,1-.9.15c-0.416.01-.624,0.08-0.624,0.19s0.088,0.17.264,0.17h5.592q0.264,0,.264-0.18c0-.12-0.079-0.18-0.236-0.18h-0.424a0.515,0.515,0,0,1-.53-0.22,6.874,6.874,0,0,1-.082-1.48v-3.54c0.469,0.72.829,1.31,1.08,1.76,0.368,0.6.648,1.05,0.84,1.34a8.436,8.436,0,0,1,1.008,1.87q0,0.24-.408.27c-0.432.01-.648,0.08-0.648,0.19s0.112,0.17.336,0.17h5.136a1.036,1.036,0,0,0,.888-0.17C712.508,3903.89,712.351,3903.83,712.038,3903.83Zm11.166-1.06a0.329,0.329,0,0,0-.192.12,1.688,1.688,0,0,1-1.008.58c-0.384,0-.616-0.34-0.7-1.01-0.016-.13-0.024-0.59-0.024-1.39v-4.11a3.467,3.467,0,0,0-.792-2.59,5.242,5.242,0,0,0-3.48-.89,4.162,4.162,0,0,0-2.712.84,2.413,2.413,0,0,0-1.032,1.87,1.4,1.4,0,0,0,.444,1.07,1.592,1.592,0,0,0,1.14.42,1.189,1.189,0,0,0,.9-0.35,1.174,1.174,0,0,0,.348-0.87,0.9,0.9,0,0,0-.864-1.06c-0.384-.03-0.576-0.13-0.576-0.29a1.267,1.267,0,0,1,.48-0.88,1.748,1.748,0,0,1,1.272-.46,1.574,1.574,0,0,1,1.7,1.2l0.024,0.12a14.514,14.514,0,0,1,.168,2.95v0.51c-3.456.36-5.184,1.56-5.184,3.57a2.29,2.29,0,0,0,.636,1.68,2.242,2.242,0,0,0,1.668.65,3.286,3.286,0,0,0,2.952-1.97,2.468,2.468,0,0,0,.588,1.49,2.082,2.082,0,0,0,1.428.41,3.631,3.631,0,0,0,2.544-.95,0.938,0.938,0,0,0,.384-0.54,0.106,0.106,0,0,0-.12-0.12h0Zm-5.16-.31a0.938,0.938,0,0,1-.912.72q-1.152,0-1.152-1.68a2.5,2.5,0,0,1,2.328-2.64v1.17A7.828,7.828,0,0,1,718.044,3902.46Zm6.9,1.7h2.088v-6.19a5.808,5.808,0,0,1,.1-0.98,2.965,2.965,0,0,1,2.832-2.72,3.034,3.034,0,0,1,.721.08v-2a2.689,2.689,0,0,0-.6-0.07,3.491,3.491,0,0,0-3.216,2.55h-0.1l-0.072-2.28h-1.848c0.072,1.08.1,2.25,0.1,3.62v7.99Zm3.384-13.2,2.257-3.43H729l-1.416,2.28h-0.048l-1.416-2.28h-1.632l2.3,3.43h1.536Zm10.28,7.75a8.268,8.268,0,0,0-2.952-1.53,6.378,6.378,0,0,1-1.68-.82,1.213,1.213,0,0,1-.432-0.98,1.388,1.388,0,0,1,.516-1.11,2.01,2.01,0,0,1,1.308-.43c1.424,0,2.368.82,2.832,2.45a0.257,0.257,0,0,0,.192.22c0.1,0,.144-0.07.144-0.2v-0.12a17.323,17.323,0,0,1-.12-2.01,1.675,1.675,0,0,1,.024-0.34l0.024-.45c0-.2-0.056-0.29-0.168-0.29a0.149,0.149,0,0,0-.12.12,0.865,0.865,0,0,1-.792.65,1.487,1.487,0,0,1-.288-0.05,8.28,8.28,0,0,0-1.824-.34,3.15,3.15,0,0,0-2.352.99,3.288,3.288,0,0,0-.96,2.4,3.036,3.036,0,0,0,.8,2.17,6.272,6.272,0,0,0,2.6,1.45,5.937,5.937,0,0,1,1.8.79,1.4,1.4,0,0,1,.456,1.06,1.681,1.681,0,0,1-1.769,1.77,3.371,3.371,0,0,1-2.246-.85,3.463,3.463,0,0,1-1.219-2.12c-0.048-.24-0.119-0.36-0.214-0.36s-0.12.09-.12,0.26v1.19a14.836,14.836,0,0,1-.058,1.59,4.334,4.334,0,0,0-.038.46,0.141,0.141,0,0,0,.144.17,0.618,0.618,0,0,0,.215-0.35,0.582,0.582,0,0,1,.6-0.35,4.537,4.537,0,0,1,1.124.32,5.584,5.584,0,0,0,1.818.38,3.384,3.384,0,0,0,2.536-1,3.539,3.539,0,0,0,.981-2.6h0A2.913,2.913,0,0,0,738.6,3898.71Zm13.434,5.12a1.322,1.322,0,0,1-.64-0.11,1.794,1.794,0,0,1-.434-0.51l-0.2-.28-0.394-.59c-0.192-.29-0.311-0.46-0.359-0.53-0.322-.48-0.556-0.83-0.7-1.07l-2.754-4.18c0.768-.87,1.4-1.54,1.9-2.02a1.5,1.5,0,0,1,1.057-.43,1.439,1.439,0,0,0,.985-0.2c0-.09-0.144-0.14-0.432-0.14h-3.7c-0.192,0-.288.06-0.288,0.17,0,0.13.184,0.19,0.552,0.19,0.544,0.02.864,0.03,0.96,0.05a0.142,0.142,0,0,1,.144.14,9.874,9.874,0,0,1-1.144,1.41c-0.477.55-.835,0.97-1.073,1.24a13.433,13.433,0,0,1-1.239,1.29v-7.13l-0.1-2.57a6.1,6.1,0,0,0-.12-1.29,1.376,1.376,0,0,0-.576.21,8.659,8.659,0,0,1-3.408.63,4.159,4.159,0,0,0-.7.05q-0.1.015-.1,0.18c0,0.12.154,0.17,0.462,0.17a1.671,1.671,0,0,1,1.107.2,1.917,1.917,0,0,1,.207,1.15v12.63a3.17,3.17,0,0,1-.108,1.19,1.831,1.831,0,0,1-.9.15c-0.416.01-.624,0.08-0.624,0.19s0.088,0.17.264,0.17h5.592q0.264,0,.264-0.18c0-.12-0.079-0.18-0.236-0.18h-0.424a0.515,0.515,0,0,1-.53-0.22,6.874,6.874,0,0,1-.082-1.48v-3.54c0.469,0.72.829,1.31,1.08,1.76,0.368,0.6.648,1.05,0.84,1.34a8.436,8.436,0,0,1,1.008,1.87q0,0.24-.408.27c-0.432.01-.648,0.08-0.648,0.19s0.112,0.17.336,0.17h5.136a1.036,1.036,0,0,0,.888-0.17C752.508,3903.89,752.351,3903.83,752.038,3903.83Zm6.486-15.48q-0.36.975-.624,1.65l-0.024.07c-0.512,1.28-.768,1.95-0.768,2a0.082,0.082,0,0,0,.1.09,1.537,1.537,0,0,0,.576-0.43l2.64-2.35,0.936-.84,0.216-.19h-3.048Zm4.68,14.42a0.329,0.329,0,0,0-.192.12,1.688,1.688,0,0,1-1.008.58c-0.384,0-.616-0.34-0.7-1.01-0.016-.13-0.024-0.59-0.024-1.39v-4.11a3.467,3.467,0,0,0-.792-2.59,5.242,5.242,0,0,0-3.48-.89,4.162,4.162,0,0,0-2.712.84,2.413,2.413,0,0,0-1.032,1.87,1.4,1.4,0,0,0,.444,1.07,1.592,1.592,0,0,0,1.14.42,1.189,1.189,0,0,0,.9-0.35,1.174,1.174,0,0,0,.348-0.87,0.9,0.9,0,0,0-.864-1.06c-0.384-.03-0.576-0.13-0.576-0.29a1.267,1.267,0,0,1,.48-0.88,1.748,1.748,0,0,1,1.272-.46,1.574,1.574,0,0,1,1.7,1.2l0.024,0.12a14.514,14.514,0,0,1,.168,2.95v0.51c-3.456.36-5.184,1.56-5.184,3.57a2.29,2.29,0,0,0,.636,1.68,2.242,2.242,0,0,0,1.668.65,3.286,3.286,0,0,0,2.952-1.97,2.468,2.468,0,0,0,.588,1.49,2.082,2.082,0,0,0,1.428.41,3.631,3.631,0,0,0,2.544-.95,0.938,0.938,0,0,0,.384-0.54,0.106,0.106,0,0,0-.12-0.12h0Zm-5.16-.31a0.938,0.938,0,0,1-.912.72q-1.152,0-1.152-1.68a2.5,2.5,0,0,1,2.328-2.64v1.17A7.828,7.828,0,0,1,758.044,3902.46Zm19.56-6.03a6.126,6.126,0,0,0-3.12-.86l-0.024-.12a6.067,6.067,0,0,0,2.892-1.39,3.012,3.012,0,0,0-.348-4.89,6.571,6.571,0,0,0-3.792-.99,5.35,5.35,0,0,0-3.312.95,2.951,2.951,0,0,0-1.272,2.48,1.9,1.9,0,0,0,.483,1.37,1.778,1.778,0,0,0,1.33.5,1.367,1.367,0,0,0,1.016-.39,1.417,1.417,0,0,0,.387-1.02c0-.84-0.615-1.36-1.845-1.59a0.29,0.29,0,0,1-.315-0.26,1.014,1.014,0,0,1,.624-0.84,2.83,2.83,0,0,1,1.44-.36,2.728,2.728,0,0,1,2.064.82,2.973,2.973,0,0,1,.792,2.14,4.024,4.024,0,0,1-.66,2.29,2.453,2.453,0,0,1-1.644,1.16,4.838,4.838,0,0,0-.828.17,0.2,0.2,0,0,0-.108.21c0,0.13.1,0.19,0.288,0.19h0.888a3.06,3.06,0,0,1,1.872.58,3.35,3.35,0,0,1,1.176,2.9,4.973,4.973,0,0,1-.984,3.29,3.388,3.388,0,0,1-2.736,1.18,3.513,3.513,0,0,1-1.356-.29,0.918,0.918,0,0,1-.684-0.55,0.617,0.617,0,0,1,.552-0.39,1.741,1.741,0,0,0,1.56-1.61,1.378,1.378,0,0,0-1.632-1.48,1.868,1.868,0,0,0-1.4.55,1.939,1.939,0,0,0-.54,1.41,2.433,2.433,0,0,0,1.14,2.12,5.615,5.615,0,0,0,3.156.76,7.871,7.871,0,0,0,4.824-1.42,4.306,4.306,0,0,0,1.92-3.57,3.384,3.384,0,0,0-1.8-3.05h0Zm13,0a6.126,6.126,0,0,0-3.12-.86l-0.024-.12a6.067,6.067,0,0,0,2.892-1.39,3.012,3.012,0,0,0-.348-4.89,6.571,6.571,0,0,0-3.792-.99,5.35,5.35,0,0,0-3.312.95,2.951,2.951,0,0,0-1.272,2.48,1.9,1.9,0,0,0,.483,1.37,1.778,1.778,0,0,0,1.33.5,1.367,1.367,0,0,0,1.016-.39,1.417,1.417,0,0,0,.387-1.02c0-.84-0.615-1.36-1.845-1.59a0.29,0.29,0,0,1-.315-0.26,1.014,1.014,0,0,1,.624-0.84,2.83,2.83,0,0,1,1.44-.36,2.728,2.728,0,0,1,2.064.82,2.973,2.973,0,0,1,.792,2.14,4.024,4.024,0,0,1-.66,2.29,2.453,2.453,0,0,1-1.644,1.16,4.838,4.838,0,0,0-.828.17,0.2,0.2,0,0,0-.108.21c0,0.13.1,0.19,0.288,0.19h0.888a3.06,3.06,0,0,1,1.872.58,3.35,3.35,0,0,1,1.176,2.9,4.973,4.973,0,0,1-.984,3.29,3.388,3.388,0,0,1-2.736,1.18,3.513,3.513,0,0,1-1.356-.29,0.918,0.918,0,0,1-.684-0.55,0.617,0.617,0,0,1,.552-0.39,1.741,1.741,0,0,0,1.56-1.61,1.378,1.378,0,0,0-1.632-1.48,1.868,1.868,0,0,0-1.4.55,1.939,1.939,0,0,0-.54,1.41,2.433,2.433,0,0,0,1.14,2.12,5.615,5.615,0,0,0,3.156.76,7.871,7.871,0,0,0,4.824-1.42,4.306,4.306,0,0,0,1.92-3.57,3.384,3.384,0,0,0-1.8-3.05h0Zm8.02,5.3a2.234,2.234,0,0,0-1.836-.86,2,2,0,0,0-1.428.52,1.792,1.792,0,0,0-.54,1.36,1.638,1.638,0,0,0,.42,1.18,1.425,1.425,0,0,0,1.092.45,1.143,1.143,0,0,0,1.2-1.37,2.115,2.115,0,0,1,.792,1.8c0,1.46-.912,2.39-2.736,2.81a0.2,0.2,0,0,0-.192.17q0,0.12.168,0.12a4.208,4.208,0,0,0,2.04-.65,3.456,3.456,0,0,0,1.7-3.24A3.536,3.536,0,0,0,798.624,3901.73Zm18.828-5.08a8.119,8.119,0,0,0-3.36-1.27l0.048-.1q4.128-.75,4.128-3.9,0-3.8-5.544-3.8H805.98c-0.352,0-.528.07-0.528,0.2a0.938,0.938,0,0,0,.85.21q1.117,0.015,1.118.72v13.75a1.989,1.989,0,0,1-.192,1.11,1.314,1.314,0,0,1-.972.23c-0.52,0-.78.07-0.78,0.22a0.162,0.162,0,0,0,.144.17c0.1,0.01.4,0.02,0.912,0.02q5.5,0,6.624-.05a13.461,13.461,0,0,0,2.4-.33,4.511,4.511,0,0,0,2.52-1.44,3.817,3.817,0,0,0,.912-2.56,3.97,3.97,0,0,0-1.536-3.18h0Zm-3.537-2.21a4.161,4.161,0,0,1-2.871.75v-6.34a0.7,0.7,0,0,1,.518-0.74,4.278,4.278,0,0,1,1.012-.08q2.118,0,2.118,3.48A4.077,4.077,0,0,1,813.915,3894.44Zm-1.719,9.31a1.4,1.4,0,0,1-1.08-.26,11.468,11.468,0,0,1-.144-2.76c0-1.01.008-1.7,0.024-2.06q0.048-1.11.048-1.71v-1.39a8.14,8.14,0,0,1,2.182.22c1.281,0.36,1.922,1.68,1.922,3.93q0,4.035-2.952,4.03h0Zm16.932-9.74a1.807,1.807,0,0,0-1.332-.5,2.029,2.029,0,0,0-1.4.47,4.251,4.251,0,0,0-1,1.64v-1.01a4.516,4.516,0,0,0-.12-1.1,11.847,11.847,0,0,1-3.984.76H820.4c-0.128,0-.192.05-0.192,0.14a0.146,0.146,0,0,0,.084.16q0.084,0.015.708,0.06a1.4,1.4,0,0,1,1.02.39,2,2,0,0,1,.228,1.12l0.024,6.47a1.636,1.636,0,0,1-.2,1.06,2.292,2.292,0,0,1-1.188.2c-0.224,0-.336.06-0.336,0.16s0.088,0.16.264,0.16H827.1a0.186,0.186,0,0,0,.216-0.2c0-.09-0.088-0.15-0.264-0.16q-0.528,0-.912-0.03a0.618,0.618,0,0,1-.648-0.69v-3.86a15.06,15.06,0,0,1,.237-3.51,1.457,1.457,0,0,1,1.231-1.27c0.2,0,.308.07,0.308,0.21a0.286,0.286,0,0,1-.072.17,1.33,1.33,0,0,0-.312.82,1.105,1.105,0,0,0,1.3,1.2,1.36,1.36,0,0,0,1.056-.45,1.6,1.6,0,0,0,.408-1.14A1.708,1.708,0,0,0,829.128,3894.01Zm13.456,9.82a1.269,1.269,0,0,1-.78-0.14,1.716,1.716,0,0,1-.12-0.87v-3.48c0-1.55-.02-2.58-0.06-3.07a4.154,4.154,0,0,0-.324-1.35,2.611,2.611,0,0,0-2.688-1.44,3.929,3.929,0,0,0-3.264,1.66v-1.37c0-.26-0.064-0.38-0.191-0.38a0.779,0.779,0,0,0-.263.09,8.723,8.723,0,0,1-4.276,1.13c-0.191.02-.286,0.08-0.286,0.18s0.128,0.16.384,0.16h0.816a0.549,0.549,0,0,1,.648.36c0.032,0.06.048,0.87,0.048,2.41v5.51l-0.072.33a0.85,0.85,0,0,1-.852.29c-0.488,0-.732.07-0.732,0.19s0.1,0.17.288,0.17c0.912,0,1.808-.02,2.688-0.05,0.448-.01,1.016-0.02,1.7-0.02s1.088-.01,1.2-0.03a0.157,0.157,0,0,0,.168-0.16,0.154,0.154,0,0,0-.192-0.15,2.4,2.4,0,0,1-.78-0.1,0.492,0.492,0,0,1-.2-0.38v-7.25a1.528,1.528,0,0,1,.472-1.15,1.677,1.677,0,0,1,1.2-.45,1.117,1.117,0,0,1,1.016.43,7.933,7.933,0,0,1,.331,3.09v4.65a2.92,2.92,0,0,1-.106,1.08,1.009,1.009,0,0,1-.719.15h-0.188c-0.189,0-.283.06-0.283,0.16q0,0.18.336,0.18h5.136c0.4,0,.6-0.06.6-0.19S843.024,3903.83,842.584,3903.83Zm10.624-8.7a5.137,5.137,0,0,0-3.828-1.65,5.452,5.452,0,0,0-3.972,1.62,5.312,5.312,0,0,0-1.644,3.93,5.183,5.183,0,0,0,1.644,3.82,5.368,5.368,0,0,0,3.9,1.62,5.5,5.5,0,0,0,3.48-1.24,5.038,5.038,0,0,0,2.016-4.16A5.448,5.448,0,0,0,853.208,3895.13Zm-2.362,7.66a1.507,1.507,0,0,1-1.479,1.35,1.545,1.545,0,0,1-1.407-1.06,11.432,11.432,0,0,1-.62-4.46,9.569,9.569,0,0,1,.525-3.54,1.659,1.659,0,0,1,1.455-1.29,1.556,1.556,0,0,1,1.455,1.23,13.616,13.616,0,0,1,.4,4.08,15.4,15.4,0,0,1-.334,3.69h0Z" transform="translate(-593 -3806)"/>
    <path id="Here_we_are" data-name="Here we are" class="cls-5" d="M701.1,3866.16v-7.08h-1.71v2.68h-2.76v-2.68h-1.71v7.08h1.71v-2.96h2.76v2.96h1.71Zm7.76,0v-1.46h-3.29v-1.47h2.94v-1.37h-2.94v-1.34h3.11v-1.44h-4.76v7.08h4.94Zm7.85,0-1.85-3.03a2.106,2.106,0,0,0,1.08-.7,1.869,1.869,0,0,0,.39-1.21,2.1,2.1,0,0,0-.23-1.02,1.926,1.926,0,0,0-.615-0.66,2.73,2.73,0,0,0-.87-0.35,4.7,4.7,0,0,0-1-.11h-2.7v7.08h1.67v-2.81h0.583l1.537,2.81h2Zm-2.186-4.47a0.718,0.718,0,0,1-.3.26,1.634,1.634,0,0,1-.4.13,3.225,3.225,0,0,1-.432.03h-0.814v-1.65h0.914a2.756,2.756,0,0,1,.4.03,1.114,1.114,0,0,1,.372.12,0.625,0.625,0,0,1,.271.24,0.692,0.692,0,0,1,.106.4A0.761,0.761,0,0,1,714.522,3861.69Zm9.336,4.47v-1.46h-3.29v-1.47h2.94v-1.37h-2.94v-1.34h3.11v-1.44h-4.76v7.08h4.94Zm14.58-7.08h-1.78l-1.14,4.71h-0.03l-1.27-4.71h-1.78l-1.26,4.71h-0.03l-1.12-4.71h-1.84l2.01,7.08h1.7l1.4-4.79h0.03l1.4,4.79h1.69Zm6.42,7.08v-1.46h-3.29v-1.47h2.94v-1.37h-2.94v-1.34h3.11v-1.44h-4.76v7.08h4.94Zm11.76,0-2.94-7.08h-1.66l-2.97,7.08h1.86l0.52-1.39h2.74l0.55,1.39h1.9Zm-2.92-2.76h-1.78l0.9-2.43Zm10.01,2.76-1.85-3.03a2.106,2.106,0,0,0,1.08-.7,1.869,1.869,0,0,0,.39-1.21,2.1,2.1,0,0,0-.23-1.02,1.926,1.926,0,0,0-.615-0.66,2.73,2.73,0,0,0-.87-0.35,4.7,4.7,0,0,0-1-.11h-2.7v7.08h1.67v-2.81h0.583l1.537,2.81h2Zm-2.186-4.47a0.718,0.718,0,0,1-.3.26,1.634,1.634,0,0,1-.4.13,3.225,3.225,0,0,1-.432.03h-0.814v-1.65h0.914a2.756,2.756,0,0,1,.4.03,1.114,1.114,0,0,1,.372.12,0.625,0.625,0,0,1,.271.24,0.692,0.692,0,0,1,.106.4A0.761,0.761,0,0,1,761.522,3861.69Zm9.336,4.47v-1.46h-3.29v-1.47h2.94v-1.37h-2.94v-1.34h3.11v-1.44h-4.76v7.08h4.94Z" transform="translate(-593 -3806)"/>
    <path id="pin" class="cls-5" d="M682.5,3858a1.5,1.5,0,1,1-1.5,1.5A1.5,1.5,0,0,1,682.5,3858Zm0.5,12s-4.813-7.15-5-10c-0.248-3.79,2.474-4.94,4-5a4.784,4.784,0,0,1,5,5C686.956,3863.13,683,3870,683,3870Z" transform="translate(-593 -3806)"/>
  </g>
</svg>
